<svg xmlns="http://www.w3.org/2000/svg" viewBox="0 0 91.61 100.72">
  <g fill-rule="evenodd">
    <path
      d="M83.83 24.38A55.89 55.89 0 0 1 0 72.78a55.88 55.88 0 0 0 76.33 20.45 56.59 56.59 0 0 0 10.58-7.89 78.83 78.83 0 0 0-3.08-61z"
      fill="#ebb540" />
    <path
      d="M45.93 3.9a55.53 55.53 0 0 1-1.67 28.88A55.86 55.86 0 0 1 2.54 70a55.85 55.85 0 0 0 54.72-11.38A55.61 55.61 0 0 0 71.44 39 79 79 0 0 0 45.93 3.9z"
      fill="#7db04a" />
    <path
      d="M19.92 0a55.48 55.48 0 0 1 3.89 14.06 55.82 55.82 0 0 1-20.9 51.83 55.85 55.85 0 0 0 33.61-44.65c.17-1.45.29-2.9.36-4.33A79.06 79.06 0 0 0 19.92 0z"
      fill="#00764a" />
  </g>
</svg>
