<svg xmlns="http://www.w3.org/2000/svg" viewBox="0 0 96.79 96.79">
  <g fill-rule="evenodd">
    <path
      d="M78.63 78.62a18.22 18.22 0 0 1-18.17 18.17 18 18 0 0 1-12.06-4.64 18.27 18.27 0 0 1-6.08 3.61V67.55h.17l.19.06.19.06h.38l.19.06h.36l.2.27H53.38l.19-.06h.37l.19-.06.18-.06h.19v10.8a6 6 0 1 0 12 0V66.46h29.3a18.22 18.22 0 0 1-17.17 12.16zM48.4 4.62A18 18 0 0 1 54.47 1v28.22h-.19l-.18-.06-.19-.06h-.18l-.19-.1h-.19l-.19-.06h-.19l-.19-.05H43.99l-.19.05h-.19l-.17.06h-.19l-.19.05h-.19l-.19.06-.19.06h-.17V18.15a6 6 0 0 0-12 0v12.16H1a18.22 18.22 0 0 1 17.15-12.16A18.15 18.15 0 0 1 48.4 4.62z"
      fill="#1fb8ff" />
    <path fill="#5bcb33"
      d="M63.06 54.48h-8.58v8.58l-6.08-6.08-6.09 6.08v-8.58h-8.6l6.08-6.09-6.08-6.08h8.6v-8.6l6.09 6.08 6.08-6.08v8.6h8.58l-6.08 6.08 6.08 6.09zM78.63 18.15a18.21 18.21 0 0 1 18.16 18.16 18 18 0 0 1-4.64 12.08 18.07 18.07 0 0 1 3.61 6.08H67.55a20.18 20.18 0 0 0 0-12.16h11.08a6 6 0 0 0 0-12H66.46V1a18.21 18.21 0 0 1 12.17 17.15zM26 54.47h-7.85a6 6 0 0 0 0 12h12.16v29.3a18.25 18.25 0 0 1-12.16-17.15A18.14 18.14 0 0 1 4.62 48.39 18.46 18.46 0 0 1 1 42.31h28.22a20.18 20.18 0 0 0 0 12.16z" />
  </g>
</svg>
